<svg xmlns="http://www.w3.org/2000/svg" xmlns:xlink="http://www.w3.org/1999/xlink" width="1920" zoomAndPan="magnify" viewBox="0 0 1440 809.999993" height="1080" preserveAspectRatio="xMidYMid meet" version="1.0"><defs><g/><clipPath id="c37e8b69a9"><path d="M 752.929688 416.878906 L 773.179688 416.878906 L 773.179688 436.378906 L 752.929688 436.378906 Z M 752.929688 416.878906 " clip-rule="nonzero"/></clipPath></defs><g clip-path="url(#c37e8b69a9)"><path fill="#92140c" d="M 772.53125 426.730469 C 772.53125 432.144531 768.144531 436.535156 762.730469 436.535156 C 757.316406 436.535156 752.929688 432.144531 752.929688 426.730469 C 752.929688 421.320312 757.316406 416.929688 762.730469 416.929688 C 768.144531 416.929688 772.53125 421.320312 772.53125 426.730469 Z M 801.800781 416.929688 C 796.386719 416.929688 792 421.320312 792 426.730469 C 792 432.144531 796.386719 436.535156 801.800781 436.535156 C 807.214844 436.535156 811.601562 432.144531 811.601562 426.730469 C 811.601562 421.320312 807.214844 416.929688 801.800781 416.929688 Z M 840.828125 416.929688 C 835.414062 416.929688 831.027344 421.320312 831.027344 426.730469 C 831.027344 432.144531 835.414062 436.535156 840.828125 436.535156 C 846.242188 436.535156 850.628906 432.144531 850.628906 426.730469 C 850.628906 421.320312 846.242188 416.929688 840.828125 416.929688 Z M 840.828125 416.929688 " fill-opacity="1" fill-rule="nonzero"/></g><g fill="#ffffff" fill-opacity="1"><g transform="translate(666.070293, 435.475515)"><g><path d="M 7.8125 0 L 7.8125 -65.09375 L 20.359375 -65.09375 L 43.53125 -31.34375 L 66.59375 -65.09375 L 79.046875 -65.09375 L 79.046875 0 L 64.359375 0 L 64.359375 -39.15625 L 48.546875 -16.09375 L 38.3125 -16.09375 L 22.5 -39.25 L 22.5 0 Z M 7.8125 0 "/></g></g></g></svg>